#format: frame checksums
#version: 2
#hash: MD5
#tb 0: 1/25
#media_type 0: video
#codec_id 0: h264
#dimensions 0: 352x288
#sar 0: 0/1
#stream#, dts,        pts, duration,     size, hash
0,         -1,          0,        1,     3657, 44a746f1bf4ebb013d836607d411eab2
0,          0,          1,        1,     4156, 25a170675eee333993163f690fb7cff6
0,          1,          2,        1,     3739, ffcc1cc35511d91eca6252352c60ef3b
0,          2,          3,        1,     4169, a6394ec9bb2231d8ca3cb13c51a7568d
0,          3,          4,        1,     3840, 66d1e4c32b375795886e8b0e190453b8
0,          4,          5,        1,     4267, 7f9af06374222a508f461d65f0c3c996
0,          5,          6,        1,     3292, f28b17f902dd93629ff55a9b5f57d593
0,          6,          7,        1,     4276, 7d48b6062173c4e87416d7735499b079
0,          7,          8,        1,     3358, 984d63afc801d395cc76fa58cf0d2dd0
0,          8,          9,        1,     3986, c26212a64e9ad26d66be6eea90de16c4
0,          9,         10,        1,     3820, f03df2fbecb91318e4bd1b83dc1b305e
0,         10,         11,        1,     3830, 889d6816e8be1116e4221ac2df14ab7c
0,         11,         12,        1,     3901, 6a63941ba3f58c44d6a3fee1c8da0413
0,         12,         13,        1,     3570, a712f09c2de376c9384a8bc5a61fb765
0,         13,         14,        1,     3993, 8cfade9139fa7d0c282afb524c71e37b
0,         14,         15,        1,     3601, 9a87072c0a5acbe996afd8538b5a36f9
0,         15,         16,        1,     3986, 6ddf9ad12478aa15b2b0dfa09580a1f1
0,         16,         17,        1,     3670, cf914fb6ee24afd3e84152584756455f
0,         17,         18,        1,     4112, 63984696bcdf3749cdfb99063326f1bc
0,         18,         19,        1,     3001, 52629cb1bb1c20d8affb06ddc7cdad51
0,         19,         20,        1,     4163, bc70a4b66217719cf19c5c50b7fcb23a
0,         20,         21,        1,     3031, 0b100cc6c28006e9fd09d07ff1349f55
0,         21,         22,        1,     4216, a00d5fa8de7fff12d10495486ffd0fa3
0,         22,         23,        1,     3079, db759385cf6a218e2f8584561f65e5f0
0,         23,         24,        1,     4314, 5662f3f3c6c642054f07f2b59bf95d4d
0,         24,         25,        1,     2812, f36dd0f4be65cc4447eeade80b565250
0,         25,         26,        1,     3865, 315139498b3d4c7e61a26216c468b94b
0,         26,         27,        1,     3491, 33b35ffe87b1b6418e3abb4bd9706cdf
0,         27,         28,        1,     3984, 3e3ce929f17a5c2943fbd4035a672f3f
0,         28,         29,        1,     3234, cd7e11a71a5acdb94b7b08f1d28c2ad5
0,         29,         30,        1,     4033, 9dd555112254b998fd15164b05bdbdf8
0,         30,         31,        1,     3270, 2b534a2d3e4b1e375e1654ba729cb54f
0,         31,         32,        1,     4087, 2e07d9bfe44855d9a21ec61d01cdc0a1
0,         32,         33,        1,     2952, 98404e9bd713634eb16059f7c1421e83
0,         33,         34,        1,     4120, 966f70140fb7fb84b8b57e861bbd8455
0,         34,         35,        1,     2586, 9d6151adfa037fcb2c6da3ebf6fa8e08
0,         35,         36,        1,     3369, 4197501d3a598b8147e5a5a7ec2f1c1b
0,         36,         37,        1,     3371, 1a7d9048f8e96244624ffc4a2ee8db3e
0,         37,         38,        1,     3402, 2f90146b7bb5fda9bc8403a2b8c47e34
0,         38,         39,        1,     3432, 0aec784f5c7f924ec1e097badee40633
0,         39,         40,        1,     3445, e017ff975b94536c0aa8c1209718ddd0
0,         40,         41,        1,     3448, faeb98963883adccb0e63757af0fc255
0,         41,         42,        1,     3457, 95a456246b6e54753299da000290c56b
0,         42,         43,        1,     3484, 5e85020d4f8b056a97af8b7919dd7834
0,         43,         44,        1,     3474, f27215716032d791ad463119fd9d6513
0,         44,         45,        1,     3485, 9dc6d56bbdcc739c74f0716aaa9670b8
0,         45,         46,        1,     3471, 5ced63a58ca76c0379ad817614efa8ce
0,         46,         47,        1,     3449, 403ec81a0177f827c63237e730451c19
0,         47,         48,        1,     3537, f0ec1bd79710ad848987086c5eb0135d
0,         48,         49,        1,     3119, c9a93fc8ac28cfb11439613c2e71f053
